<svg width="350" height="154" viewBox="0 0 350 154" fill="none" xmlns="http://www.w3.org/2000/svg">
<rect x="183" y="13" width="155" height="55" rx="3" fill="#E2F1E7"/>
<circle cx="208" cy="40" r="15" fill="#9ECC93"/>
<rect x="232" y="22" width="95" height="9" fill="#9ECC93"/>
<rect x="232" y="37" width="84" height="8" fill="#9ECC93"/>
<rect x="232" y="51" width="84" height="8" fill="#9ECC93"/>
<rect x="183" y="83" width="155" height="55" rx="3" fill="#E2F1E7"/>
<circle cx="208" cy="110" r="15" fill="#9ECC93"/>
<rect x="232" y="92" width="95" height="9" fill="#9ECC93"/>
<rect x="232" y="107" width="84" height="8" fill="#9ECC93"/>
<rect x="232" y="121" width="84" height="8" fill="#9ECC93"/>
<rect x="13" y="83" width="155" height="55" rx="3" fill="#E2F1E7"/>
<circle cx="38" cy="110" r="15" fill="#9ECC93"/>
<rect x="62" y="92" width="95" height="9" fill="#9ECC93"/>
<rect x="62" y="107" width="84" height="8" fill="#9ECC93"/>
<rect x="62" y="121" width="84" height="8" fill="#9ECC93"/>
<rect x="13" y="13" width="155" height="55" rx="3" fill="#E2F1E7"/>
<circle cx="38" cy="40" r="15" fill="#9ECC93"/>
<rect x="62" y="22" width="95" height="9" fill="#9ECC93"/>
<rect x="62" y="37" width="84" height="8" fill="#9ECC93"/>
<rect x="62" y="51" width="84" height="8" fill="#9ECC93"/>
</svg>
