<svg width="239" height="101" viewBox="0 0 239 101" fill="none" xmlns="http://www.w3.org/2000/svg">
<rect x="10" y="11" width="217" height="35" rx="3" fill="#E2F1E7"/>
<path d="M28.4425 25.685L23.5 30.6275L20.8075 27.9425L19.75 29L23.5 32.75L29.5 26.75L28.4425 25.685ZM25 21.5C20.86 21.5 17.5 24.86 17.5 29C17.5 33.14 20.86 36.5 25 36.5C29.14 36.5 32.5 33.14 32.5 29C32.5 24.86 29.14 21.5 25 21.5ZM25 35C21.685 35 19 32.315 19 29C19 25.685 21.685 23 25 23C28.315 23 31 25.685 31 29C31 32.315 28.315 35 25 35Z" fill="#9ECC93"/>
<rect x="43" y="19" width="162" height="8" fill="#9ECC93"/>
<rect x="43" y="31" width="68" height="8" fill="#9ECC93"/>
<rect x="135" y="31" width="38" height="8" fill="#9ECC93"/>
<rect x="10" y="56" width="217" height="35" rx="3" fill="#E2F1E7"/>
<path d="M28.4425 70.685L23.5 75.6275L20.8075 72.9425L19.75 74L23.5 77.75L29.5 71.75L28.4425 70.685ZM25 66.5C20.86 66.5 17.5 69.86 17.5 74C17.5 78.14 20.86 81.5 25 81.5C29.14 81.5 32.5 78.14 32.5 74C32.5 69.86 29.14 66.5 25 66.5ZM25 80C21.685 80 19 77.315 19 74C19 70.685 21.685 68 25 68C28.315 68 31 70.685 31 74C31 77.315 28.315 80 25 80Z" fill="#9ECC93"/>
<rect x="43" y="64" width="162" height="8" fill="#9ECC93"/>
<rect x="43" y="76" width="68" height="8" fill="#9ECC93"/>
<rect x="135" y="76" width="38" height="8" fill="#9ECC93"/>
</svg>
