<svg width="432" height="146" viewBox="0 0 432 146" fill="none" xmlns="http://www.w3.org/2000/svg">
<rect x="13" y="12" width="128" height="46" rx="3" fill="#E2F1E7"/>
<rect x="21" y="17" width="98" height="10" fill="#9ECC93"/>
<rect x="21" y="30" width="71" height="10" fill="#9ECC93"/>
<rect x="41" y="43" width="66" height="11" fill="#9ECC93"/>
<rect x="21" y="43" width="13" height="11" fill="#9ECC93"/>
<rect x="152" y="38" width="128" height="46" rx="3" fill="#E2F1E7"/>
<rect x="160" y="43" width="98" height="10" fill="#9ECC93"/>
<rect x="160" y="56" width="71" height="10" fill="#9ECC93"/>
<rect x="180" y="69" width="66" height="10" fill="#9ECC93"/>
<rect x="160" y="69" width="13" height="10" fill="#9ECC93"/>
<rect x="291" y="12" width="128" height="46" rx="3" fill="#E2F1E7"/>
<rect x="299" y="17" width="98" height="10" fill="#9ECC93"/>
<rect x="299" y="30" width="71" height="10" fill="#9ECC93"/>
<rect x="299" y="43" width="86" height="10" fill="#9ECC93"/>
<rect x="152" y="89" width="128" height="46" rx="3" fill="#E2F1E7"/>
<rect x="160" y="94" width="98" height="10" fill="#9ECC93"/>
<rect x="160" y="107" width="71" height="10" fill="#9ECC93"/>
<rect x="180" y="120" width="66" height="9" fill="#9ECC93"/>
<rect x="160" y="120" width="13" height="9" fill="#9ECC93"/>
<rect x="152" y="12" width="128" height="21" rx="3" fill="#E2F1E7"/>
<rect x="161" y="17" width="98" height="11" fill="#9ECC93"/>
<rect x="13" y="63" width="128" height="21" rx="3" fill="#E2F1E7"/>
<path d="M21 68H133V79H21V68Z" fill="#9ECC93"/>
</svg>
