<svg width="48" height="38" viewBox="0 0 48 38" fill="none" xmlns="http://www.w3.org/2000/svg">
<path d="M10.8848 3H3.06125C2.77149 10.168 3.06125 20.408 14.3619 20.408M14.3619 20.408C26.6499 20.408 25.9523 8.632 25.9523 3H18.7083M14.3619 20.408C13.5892 27.832 16.3902 35 23.6342 35C30.8782 35 32.6167 27.832 32.6167 20.408C32.2304 17.9333 33.1963 10.4752 38.9915 10.68C44.7867 10.8848 45.4628 15.8853 44.7867 20.408" stroke="#4E4E4E" stroke-width="5"/>
<mask id="path-2-inside-1" fill="white">
<ellipse cx="43.5" cy="21.9091" rx="4.5" ry="4.36364"/>
</mask>
<path d="M43 21.9091C43 21.6833 43.1019 21.5015 43.2013 21.4051C43.2979 21.3114 43.413 21.2727 43.5 21.2727V31.2727C48.6006 31.2727 53 27.2244 53 21.9091H43ZM43.5 21.2727C43.587 21.2727 43.7021 21.3114 43.7987 21.4051C43.8981 21.5015 44 21.6833 44 21.9091H34C34 27.2244 38.3994 31.2727 43.5 31.2727V21.2727ZM44 21.9091C44 22.1348 43.8981 22.3167 43.7987 22.413C43.7021 22.5068 43.587 22.5455 43.5 22.5455V12.5455C38.3994 12.5455 34 16.5938 34 21.9091H44ZM43.5 22.5455C43.413 22.5455 43.2979 22.5068 43.2013 22.413C43.1019 22.3167 43 22.1348 43 21.9091H53C53 16.5938 48.6006 12.5455 43.5 12.5455V22.5455Z" fill="#4E4E4E" mask="url(#path-2-inside-1)"/>
</svg>
