<svg width="115" height="140" viewBox="0 0 115 140" fill="none" xmlns="http://www.w3.org/2000/svg">
<g clip-path="url(#clip0)">
<rect x="19" y="35" width="74" height="85" rx="5" fill="#004E8A"/>
<rect x="27" y="47" width="32" height="7" fill="#2D7CB9"/>
<rect x="27" y="61" width="58" height="7" fill="#2D7CB9"/>
<rect x="27" y="71" width="58" height="7" fill="#2D7CB9"/>
<rect x="66" y="105" width="19" height="7" fill="#2D7CB9"/>
<rect x="27" y="81" width="58" height="7" fill="#2D7CB9"/>
<path d="M39 24L41.6942 31.9463H50.4127L43.3593 36.8574L46.0534 44.8037L39 39.8926L31.9466 44.8037L34.6407 36.8574L27.5873 31.9463H36.3058L39 24Z" fill="#FBC574"/>
<g filter="url(#filter0_d)">
<path d="M68.5 24L69.9593 27.8004H74.6819L70.8613 30.1492L72.3206 33.9496L68.5 31.6008L64.6794 33.9496L66.1387 30.1492L62.3181 27.8004H67.0407L68.5 24Z" fill="#FFA843"/>
</g>
<g filter="url(#filter1_d)">
<path d="M109.678 17.1661L110.455 24L106.643 19.1085L99 24L103.599 15.202L100.636 11.4L105.067 12.3945L108.409 6L109.242 13.3319L114 14.4L109.678 17.1661Z" fill="#FFDA16"/>
</g>
<g filter="url(#filter2_d)">
<path d="M64.7495 12.4669L59.6209 18.2672L60.2017 10.4329L48.7492 5.31068L60.6656 4.17625L61.117 -1.91303L64.4682 3.81426L73.1292 2.98974L67.6269 9.21269L71.2258 15.3635L64.7495 12.4669Z" fill="#FF7A00"/>
</g>
<g filter="url(#filter3_d)">
<path d="M14.4542 18.2373L8 19.2727L12.6198 14.1906L8 4L16.3092 10.1319L19.9 6.18182L18.9607 12.0887L25 16.5455L18.0754 17.6564L17.0667 24L14.4542 18.2373Z" fill="#FFDB20"/>
</g>
<g filter="url(#filter4_d)">
<path d="M12.8848 92H5.06125C4.77149 99.392 5.06125 109.952 16.3619 109.952M16.3619 109.952C28.6499 109.952 27.9523 97.808 27.9523 92H20.7083M16.3619 109.952C15.5892 117.608 18.3902 125 25.6342 125C32.8782 125 34.6167 117.608 34.6167 109.952C34.2304 107.4 35.1963 99.7088 40.9915 99.92C46.7867 100.131 47.4628 105.288 46.7867 109.952" stroke="#20C763" stroke-width="5"/>
<circle cx="45.5" cy="111.5" r="2.5" stroke="#20C763" stroke-width="4"/>
</g>
<circle cx="37.5" cy="11.5" r="2" stroke="#DBA315"/>
<circle cx="76.5" cy="10.5" r="1" stroke="#AC118A"/>
<circle cx="94.5" cy="40.5" r="1" stroke="#AC118A"/>
<circle cx="17.5" cy="31.5" r="2" stroke="#DB3915"/>
<circle cx="55" cy="34" r="1" stroke="#DBA315" stroke-width="2"/>
<g filter="url(#filter5_d)">
<circle cx="92" cy="77" r="17.5" fill="white" stroke="#FFE661" stroke-width="5"/>
<path d="M95.1429 66.4286L92 77.5714V91" stroke="#FFE661" stroke-width="3"/>
</g>
</g>
<defs>
<filter id="filter0_d" x="58.3181" y="24" width="20.3637" height="17.9496" filterUnits="userSpaceOnUse" color-interpolation-filters="sRGB">
<feFlood flood-opacity="0" result="BackgroundImageFix"/>
<feColorMatrix in="SourceAlpha" type="matrix" values="0 0 0 0 0 0 0 0 0 0 0 0 0 0 0 0 0 0 127 0"/>
<feOffset dy="4"/>
<feGaussianBlur stdDeviation="2"/>
<feColorMatrix type="matrix" values="0 0 0 0 0 0 0 0 0 0 0 0 0 0 0 0 0 0 0.25 0"/>
<feBlend mode="normal" in2="BackgroundImageFix" result="effect1_dropShadow"/>
<feBlend mode="normal" in="SourceGraphic" in2="effect1_dropShadow" result="shape"/>
</filter>
<filter id="filter1_d" x="95" y="3" width="23" height="26" filterUnits="userSpaceOnUse" color-interpolation-filters="sRGB">
<feFlood flood-opacity="0" result="BackgroundImageFix"/>
<feColorMatrix in="SourceAlpha" type="matrix" values="0 0 0 0 0 0 0 0 0 0 0 0 0 0 0 0 0 0 127 0"/>
<feOffset dy="1"/>
<feGaussianBlur stdDeviation="2"/>
<feColorMatrix type="matrix" values="0 0 0 0 0 0 0 0 0 0 0 0 0 0 0 0 0 0 0.25 0"/>
<feBlend mode="normal" in2="BackgroundImageFix" result="effect1_dropShadow"/>
<feBlend mode="normal" in="SourceGraphic" in2="effect1_dropShadow" result="shape"/>
</filter>
<filter id="filter2_d" x="44.7492" y="-8.65308" width="37.6865" height="37.9306" filterUnits="userSpaceOnUse" color-interpolation-filters="sRGB">
<feFlood flood-opacity="0" result="BackgroundImageFix"/>
<feColorMatrix in="SourceAlpha" type="matrix" values="0 0 0 0 0 0 0 0 0 0 0 0 0 0 0 0 0 0 127 0"/>
<feOffset dy="3"/>
<feGaussianBlur stdDeviation="2"/>
<feColorMatrix type="matrix" values="0 0 0 0 0 0 0 0 0 0 0 0 0 0 0 0 0 0 0.25 0"/>
<feBlend mode="normal" in2="BackgroundImageFix" result="effect1_dropShadow"/>
<feBlend mode="normal" in="SourceGraphic" in2="effect1_dropShadow" result="shape"/>
</filter>
<filter id="filter3_d" x="4" y="1" width="25" height="28" filterUnits="userSpaceOnUse" color-interpolation-filters="sRGB">
<feFlood flood-opacity="0" result="BackgroundImageFix"/>
<feColorMatrix in="SourceAlpha" type="matrix" values="0 0 0 0 0 0 0 0 0 0 0 0 0 0 0 0 0 0 127 0"/>
<feOffset dy="1"/>
<feGaussianBlur stdDeviation="2"/>
<feColorMatrix type="matrix" values="0 0 0 0 0 0 0 0 0 0 0 0 0 0 0 0 0 0 0.25 0"/>
<feBlend mode="normal" in2="BackgroundImageFix" result="effect1_dropShadow"/>
<feBlend mode="normal" in="SourceGraphic" in2="effect1_dropShadow" result="shape"/>
</filter>
<filter id="filter4_d" x="-1.50107" y="87.5" width="55.5011" height="46" filterUnits="userSpaceOnUse" color-interpolation-filters="sRGB">
<feFlood flood-opacity="0" result="BackgroundImageFix"/>
<feColorMatrix in="SourceAlpha" type="matrix" values="0 0 0 0 0 0 0 0 0 0 0 0 0 0 0 0 0 0 127 0"/>
<feOffset dy="2"/>
<feGaussianBlur stdDeviation="2"/>
<feColorMatrix type="matrix" values="0 0 0 0 0 0 0 0 0 0 0 0 0 0 0 0 0 0 0.25 0"/>
<feBlend mode="normal" in2="BackgroundImageFix" result="effect1_dropShadow"/>
<feBlend mode="normal" in="SourceGraphic" in2="effect1_dropShadow" result="shape"/>
</filter>
<filter id="filter5_d" x="65" y="50" width="54" height="54" filterUnits="userSpaceOnUse" color-interpolation-filters="sRGB">
<feFlood flood-opacity="0" result="BackgroundImageFix"/>
<feColorMatrix in="SourceAlpha" type="matrix" values="0 0 0 0 0 0 0 0 0 0 0 0 0 0 0 0 0 0 127 0"/>
<feOffset/>
<feGaussianBlur stdDeviation="3.5"/>
<feColorMatrix type="matrix" values="0 0 0 0 0 0 0 0 0 0 0 0 0 0 0 0 0 0 0.25 0"/>
<feBlend mode="normal" in2="BackgroundImageFix" result="effect1_dropShadow"/>
<feBlend mode="normal" in="SourceGraphic" in2="effect1_dropShadow" result="shape"/>
</filter>
<clipPath id="clip0">
<rect width="115" height="140" fill="white"/>
</clipPath>
</defs>
</svg>
