<svg width="13" height="14" viewBox="0 0 13 14" fill="none" xmlns="http://www.w3.org/2000/svg">
<g clip-path="url(#clip0)">
<path d="M9.52381 4.85H7.14286V6.15H9.52381V4.85Z" fill="#312F2F"/>
<path d="M5.23809 4.85H2.66667V6.15H5.23809V4.85Z" fill="#312F2F"/>
<path d="M10.6667 0.3H10V-1H8.66667V0.3H3.33333V-1H2V0.3H1.33333C1.15859 0.300121 0.985583 0.333876 0.824245 0.39933C0.662907 0.464784 0.51641 0.560648 0.393155 0.681426C0.2699 0.802203 0.172313 0.945517 0.10599 1.10315C0.0396678 1.26078 0.00591445 1.42962 0.00666664 1.6L0 5.30118H1.33333V3.55H10.6667V10.7H8V12H10.6667C10.8418 12 11.0151 11.9664 11.1769 11.901C11.3387 11.8357 11.4857 11.74 11.6095 11.6192C11.7333 11.4985 11.8315 11.3552 11.8985 11.1975C11.9655 11.0398 12 10.8707 12 10.7V1.6C12 1.25522 11.8595 0.924558 11.6095 0.680761C11.3594 0.436964 11.0203 0.3 10.6667 0.3Z" fill="#312F2F"/>
<path d="M0 10.7C0 10.8707 0.0344876 11.0398 0.101494 11.1975C0.1685 11.3552 0.266713 11.4985 0.390524 11.6192C0.514336 11.74 0.661321 11.8357 0.823089 11.901C0.984856 11.9664 1.15824 12 1.33333 12H3.5C3 12 2.17581 11.4975 1.5 11C1.22222 10.7161 0.390524 10.1151 0 9V9.5V10.7Z" fill="#312F2F"/>
<path d="M1.40778 8.59667C1.97151 9.54152 2.86822 10.3101 3.97056 10.7933L4.82611 10.06C4.87698 10.0163 4.94106 9.98569 5.01115 9.97156C5.08123 9.95743 5.15453 9.96035 5.22278 9.98C5.67083 10.1062 6.13949 10.1703 6.61111 10.17C6.71425 10.17 6.81317 10.2051 6.8861 10.2676C6.95903 10.3301 7 10.4149 7 10.5033V11.6667C7 11.7551 6.95903 11.8399 6.8861 11.9024C6.81317 11.9649 6.71425 12 6.61111 12C4.85774 12 3.17617 11.403 1.93635 10.3403C0.696526 9.27757 0 7.83623 0 6.33333C0 6.24493 0.0409721 6.16014 0.113903 6.09763C0.186834 6.03512 0.285749 6 0.388889 6H1.75C1.85314 6 1.95206 6.03512 2.02499 6.09763C2.09792 6.16014 2.13889 6.24493 2.13889 6.33333C2.13819 6.7376 2.21303 7.13935 2.36056 7.52333C2.38273 7.58216 2.38538 7.64511 2.36821 7.70515C2.35104 7.7652 2.31473 7.81996 2.26333 7.86333L1.40778 8.59667Z" fill="#312F2F"/>
</g>
<defs>
<clipPath id="clip0">
<rect width="12.6" height="14" fill="white"/>
</clipPath>
</defs>
</svg>
